G04 EAGLE Gerber RS-274X export*
G75*
%MOMM*%
%FSLAX34Y34*%
%LPD*%
%INTop Copper*%
%IPPOS*%
%AMOC8*
5,1,8,0,0,1.08239X$1,22.5*%
G01*
%ADD10P,1.429621X8X22.500000*%
%ADD11P,1.429621X8X112.500000*%
%ADD12P,1.429621X8X292.500000*%
%ADD13P,1.429621X8X202.500000*%
%ADD14C,1.320800*%
%ADD15C,1.879600*%
%ADD16C,1.108000*%
%ADD17C,0.609600*%
%ADD18C,0.406400*%
%ADD19C,0.756400*%


D10*
X317500Y212090D03*
X342900Y212090D03*
D11*
X165100Y114300D03*
X165100Y139700D03*
D12*
X317500Y415290D03*
X317500Y389890D03*
X368300Y469900D03*
X368300Y444500D03*
D13*
X127000Y469900D03*
X101600Y469900D03*
D11*
X393700Y355600D03*
X393700Y431800D03*
X101600Y355600D03*
X101600Y431800D03*
D12*
X419100Y431800D03*
X419100Y355600D03*
X76200Y431800D03*
X76200Y355600D03*
D14*
X205296Y415100D02*
X218504Y415100D01*
X218504Y389700D02*
X205296Y389700D01*
X205296Y364300D02*
X218504Y364300D01*
X218504Y338900D02*
X205296Y338900D01*
X205296Y313500D02*
X218504Y313500D01*
X218504Y288100D02*
X205296Y288100D01*
X205296Y262700D02*
X218504Y262700D01*
X218504Y237300D02*
X205296Y237300D01*
X205296Y211900D02*
X218504Y211900D01*
X218504Y186500D02*
X205296Y186500D01*
X205296Y161100D02*
X218504Y161100D01*
X218504Y135700D02*
X205296Y135700D01*
X205296Y110300D02*
X218504Y110300D01*
X218504Y84900D02*
X205296Y84900D01*
X281496Y84900D02*
X294704Y84900D01*
X294704Y110300D02*
X281496Y110300D01*
X281496Y135700D02*
X294704Y135700D01*
X294704Y161100D02*
X281496Y161100D01*
X281496Y186500D02*
X294704Y186500D01*
X294704Y211900D02*
X281496Y211900D01*
X281496Y237300D02*
X294704Y237300D01*
X294704Y262700D02*
X281496Y262700D01*
X281496Y288100D02*
X294704Y288100D01*
X294704Y313500D02*
X281496Y313500D01*
X281496Y338900D02*
X294704Y338900D01*
X294704Y364300D02*
X281496Y364300D01*
X281496Y389700D02*
X294704Y389700D01*
X294704Y415100D02*
X281496Y415100D01*
D15*
X406400Y76200D03*
X408940Y101600D03*
X469900Y368300D03*
X469900Y342900D03*
X469900Y317500D03*
X469900Y292100D03*
X469900Y266700D03*
X469900Y242570D03*
X469900Y217170D03*
X469900Y191770D03*
X469900Y166370D03*
X469900Y140970D03*
X25400Y237490D03*
X25400Y212090D03*
X25400Y186690D03*
X25400Y161290D03*
X25400Y135890D03*
X25400Y368300D03*
X25400Y342900D03*
X25400Y317500D03*
X25400Y292100D03*
X25400Y266700D03*
X101600Y165100D03*
X50800Y127000D03*
X25400Y88900D03*
X242570Y24130D03*
X217170Y24130D03*
D16*
X151140Y29610D03*
X151140Y54610D03*
X151140Y79610D03*
X184140Y79610D03*
X184140Y54610D03*
X184140Y29610D03*
D15*
X120650Y21590D03*
X120650Y46990D03*
X120650Y72390D03*
X120650Y97790D03*
X406210Y21590D03*
X380810Y21590D03*
X355410Y21590D03*
X330010Y21590D03*
X304610Y21590D03*
X279210Y21590D03*
X199200Y480060D03*
X224600Y480060D03*
X250000Y480060D03*
X275400Y480060D03*
X300800Y480060D03*
X436880Y26670D03*
X436880Y52070D03*
X436880Y77470D03*
X436880Y102870D03*
X429260Y469900D03*
X480060Y469900D03*
X25400Y468630D03*
X76200Y468630D03*
D17*
X151140Y29610D02*
X184140Y29610D01*
X189620Y24130D02*
X217170Y24130D01*
X189620Y24130D02*
X184140Y29610D01*
D18*
X169100Y110300D02*
X211900Y110300D01*
X169100Y110300D02*
X165100Y114300D01*
X288100Y415100D02*
X317310Y415100D01*
X317500Y415290D01*
X342900Y469900D02*
X368300Y469900D01*
X342900Y469900D02*
X317500Y444500D01*
X317500Y415290D01*
X393700Y330200D02*
X419100Y355600D01*
X393700Y330200D02*
X381000Y330200D01*
X342900Y368300D01*
X342900Y389510D02*
X317310Y415100D01*
X342900Y389510D02*
X342900Y368300D01*
X436880Y52070D02*
X458470Y52070D01*
X469900Y63500D01*
X469900Y101600D01*
X444500Y127000D01*
X444500Y139700D01*
X469900Y165100D02*
X469900Y166370D01*
X469900Y165100D02*
X444500Y139700D01*
D17*
X120650Y21590D02*
X92710Y21590D01*
X50800Y63500D01*
X50800Y127000D01*
D18*
X50800Y177800D01*
X41910Y186690D01*
X25400Y186690D01*
X41910Y203200D01*
X50800Y203200D01*
D19*
X50800Y203200D03*
D18*
X50800Y127000D02*
X76200Y127000D01*
D19*
X76200Y127000D03*
X139700Y114300D03*
D18*
X165100Y114300D01*
X419100Y355600D02*
X438150Y355600D01*
X439420Y356870D01*
X440055Y356235D01*
D19*
X440055Y356235D03*
D18*
X224600Y480060D02*
X150940Y406400D01*
X50800Y406400D01*
D19*
X50800Y406400D03*
D17*
X151140Y79610D02*
X184140Y79610D01*
X187090Y79610D01*
X195580Y71120D02*
X328930Y71120D01*
X355410Y44640D01*
X355410Y21590D01*
X195580Y71120D02*
X187090Y79610D01*
D18*
X381000Y431800D02*
X393700Y431800D01*
X381000Y431800D02*
X368300Y444500D01*
X101600Y431800D02*
X101600Y469900D01*
X288290Y212090D02*
X288100Y211900D01*
X288290Y212090D02*
X317500Y212090D01*
X429260Y441960D02*
X429260Y469900D01*
X429260Y441960D02*
X419100Y431800D01*
X406400Y444500D01*
X406400Y469900D01*
X391160Y485140D01*
X332740Y485140D01*
X292100Y444500D01*
X241300Y444500D01*
X211900Y415100D01*
X211900Y135700D02*
X220600Y127000D01*
X241300Y127000D01*
D19*
X241300Y127000D03*
D18*
X62230Y431800D02*
X25400Y468630D01*
X62230Y431800D02*
X76200Y431800D01*
X211900Y161100D02*
X237300Y161100D01*
X241300Y165100D01*
D19*
X241300Y165100D03*
D18*
X288100Y135700D02*
X338900Y135700D01*
X342900Y139700D01*
D19*
X342900Y139700D03*
X342900Y76200D03*
D18*
X406400Y76200D01*
X435610Y76200D02*
X436880Y77470D01*
X435610Y76200D02*
X406400Y76200D01*
X313500Y161100D02*
X288100Y161100D01*
X313500Y161100D02*
X317500Y165100D01*
D19*
X317500Y165100D03*
X317500Y101600D03*
D18*
X408940Y101600D01*
X435610Y101600D02*
X436880Y102870D01*
X435610Y101600D02*
X408940Y101600D01*
X266700Y207900D02*
X211900Y262700D01*
X266700Y207900D02*
X266700Y177800D01*
D19*
X266700Y177800D03*
X293370Y57150D03*
D18*
X293370Y32830D01*
X304610Y21590D01*
X264160Y159640D02*
X211900Y211900D01*
X264160Y159640D02*
X264160Y132080D01*
D19*
X264160Y132080D03*
X320040Y57150D03*
D18*
X330010Y47180D01*
X330010Y21590D01*
X62230Y368300D02*
X25400Y368300D01*
X62230Y368300D02*
X83820Y389890D01*
X211710Y389890D01*
X211900Y389700D01*
X167640Y364490D02*
X146050Y342900D01*
X167640Y364490D02*
X211710Y364490D01*
X211900Y364300D01*
X146050Y342900D02*
X25400Y342900D01*
X25400Y317500D02*
X154940Y317500D01*
X185420Y287020D01*
X210820Y287020D01*
X211900Y288100D01*
X80010Y292100D02*
X25400Y292100D01*
X185610Y186500D02*
X211900Y186500D01*
X185610Y186500D02*
X80010Y292100D01*
X88900Y266700D02*
X25400Y266700D01*
D19*
X88900Y266700D03*
D18*
X118110Y237490D02*
X25400Y237490D01*
X190500Y165100D02*
X190500Y152400D01*
X194310Y148590D01*
X266700Y114300D02*
X266700Y101600D01*
X283400Y84900D01*
X288100Y84900D01*
X190500Y165100D02*
X118110Y237490D01*
X194310Y148590D02*
X232410Y148590D01*
X266700Y114300D01*
X430530Y177800D02*
X469900Y217170D01*
X430530Y177800D02*
X393700Y177800D01*
X368300Y152400D01*
X368300Y139700D01*
X351600Y123000D01*
X300800Y123000D01*
X288100Y110300D01*
X293370Y242570D02*
X469900Y242570D01*
X293370Y242570D02*
X288100Y237300D01*
X465900Y262700D02*
X469900Y266700D01*
X465900Y262700D02*
X288100Y262700D01*
X465900Y288100D02*
X469900Y292100D01*
X465900Y288100D02*
X288100Y288100D01*
X409505Y317500D02*
X469900Y317500D01*
X353060Y304800D02*
X344170Y313690D01*
X288290Y313690D01*
X288100Y313500D01*
X396805Y304800D02*
X409505Y317500D01*
X396805Y304800D02*
X353060Y304800D01*
X457200Y330200D02*
X469900Y342900D01*
X414303Y330200D02*
X401095Y316992D01*
X356108Y316992D02*
X330200Y342900D01*
X292100Y342900D01*
X288100Y338900D01*
X414303Y330200D02*
X457200Y330200D01*
X401095Y316992D02*
X356108Y316992D01*
X444500Y342900D02*
X469900Y368300D01*
X400050Y323850D02*
X361950Y323850D01*
X321500Y364300D02*
X288100Y364300D01*
X419100Y342900D02*
X444500Y342900D01*
X419100Y342900D02*
X400050Y323850D01*
X361950Y323850D02*
X321500Y364300D01*
D17*
X184140Y54610D02*
X151140Y54610D01*
X138430Y54610D01*
X120650Y72390D01*
X184140Y54610D02*
X187950Y50800D01*
X203200Y50800D01*
D19*
X203200Y50800D03*
X431800Y165100D03*
D17*
X458470Y191770D01*
X469900Y191770D01*
X120650Y72390D02*
X118110Y72390D01*
X101600Y88900D01*
X101600Y165100D01*
D18*
X101600Y190500D01*
X67310Y224790D01*
X38100Y224790D01*
X25400Y212090D01*
M02*
