M48
;GenerationSoftware,Autodesk,EAGLE,9.6.2*%
;CreationDate,2022-04-14T17:57:16Z*%
FMAT,2
ICI,OFF
METRIC,TZ,000.000
T4C0.350
T3C0.600
T2C0.813
T1C1.016
%
G90
M71
T1
X46990Y14097
X2540Y36830
X2540Y13589
X2540Y16129
X2540Y18669
X2540Y21209
X2540Y23749
X46990Y16637
X46990Y19177
X46990Y21717
X46990Y24257
X46990Y26670
X46990Y29210
X46990Y31750
X46990Y34290
X33001Y2159
X46990Y36830
X40894Y10160
X40640Y7620
X2540Y34290
X2540Y31750
X2540Y29210
X2540Y26670
X10160Y16510
X5080Y12700
X2540Y8890
X24257Y2413
X21717Y2413
X12065Y2159
X12065Y4699
X12065Y7239
X12065Y9779
X40621Y2159
X38081Y2159
X35541Y2159
X30461Y2159
X27921Y2159
X19920Y48006
X22460Y48006
X25000Y48006
X27540Y48006
X30080Y48006
X43688Y2667
X43688Y5207
X43688Y7747
X43688Y10287
X42926Y46990
X48006Y46990
X2540Y46863
X7620Y46863
T2
X28810Y8490
X28810Y11030
X28810Y13570
X28810Y16110
X28810Y18650
X28810Y21190
X28810Y23730
X28810Y26270
X28810Y28810
X28810Y31350
X21190Y18650
X28810Y36430
X28810Y38970
X28810Y41510
X28810Y33890
X10160Y35560
X31750Y21209
X34290Y21209
X16510Y11430
X16510Y13970
X31750Y41529
X31750Y38989
X36830Y46990
X36830Y44450
X12700Y46990
X10160Y46990
X39370Y35560
X39370Y43180
X10160Y43180
X41910Y43180
X41910Y35560
X7620Y43180
X7620Y35560
X21190Y41510
X21190Y38970
X21190Y36430
X21190Y33890
X21190Y31350
X21190Y28810
X21190Y26270
X21190Y23730
X21190Y21190
X21190Y16110
X21190Y13570
X21190Y11030
X21190Y8490
T3
X18414Y2961
X15114Y2961
X15114Y5461
X15114Y7961
X18414Y7961
X18414Y5461
T4
X34290Y13970
X8890Y26670
X24130Y16510
X24130Y12700
X5080Y40640
X44005Y35624
X13970Y11430
X5080Y20320
X7620Y12700
X43180Y16510
X20320Y5080
X32004Y5715
X26416Y13208
X29337Y5715
X26670Y17780
X31750Y10160
X31750Y16510
X34290Y7620
M30