G04 EAGLE Gerber RS-274X export*
G75*
%MOMM*%
%FSLAX34Y34*%
%LPD*%
%INSoldermask Bottom*%
%IPPOS*%
%AMOC8*
5,1,8,0,0,1.08239X$1,22.5*%
G01*
%ADD10P,1.649562X8X22.500000*%
%ADD11P,1.649562X8X112.500000*%
%ADD12P,1.649562X8X292.500000*%
%ADD13P,1.649562X8X202.500000*%
%ADD14C,1.524000*%
%ADD15C,2.082800*%
%ADD16C,1.311200*%
%ADD17C,0.959600*%


D10*
X317500Y212090D03*
X342900Y212090D03*
D11*
X165100Y114300D03*
X165100Y139700D03*
D12*
X317500Y415290D03*
X317500Y389890D03*
X368300Y469900D03*
X368300Y444500D03*
D13*
X127000Y469900D03*
X101600Y469900D03*
D11*
X393700Y355600D03*
X393700Y431800D03*
X101600Y355600D03*
X101600Y431800D03*
D12*
X419100Y431800D03*
X419100Y355600D03*
X76200Y431800D03*
X76200Y355600D03*
D14*
X205296Y415100D02*
X218504Y415100D01*
X218504Y389700D02*
X205296Y389700D01*
X205296Y364300D02*
X218504Y364300D01*
X218504Y338900D02*
X205296Y338900D01*
X205296Y313500D02*
X218504Y313500D01*
X218504Y288100D02*
X205296Y288100D01*
X205296Y262700D02*
X218504Y262700D01*
X218504Y237300D02*
X205296Y237300D01*
X205296Y211900D02*
X218504Y211900D01*
X218504Y186500D02*
X205296Y186500D01*
X205296Y161100D02*
X218504Y161100D01*
X218504Y135700D02*
X205296Y135700D01*
X205296Y110300D02*
X218504Y110300D01*
X218504Y84900D02*
X205296Y84900D01*
X281496Y84900D02*
X294704Y84900D01*
X294704Y110300D02*
X281496Y110300D01*
X281496Y135700D02*
X294704Y135700D01*
X294704Y161100D02*
X281496Y161100D01*
X281496Y186500D02*
X294704Y186500D01*
X294704Y211900D02*
X281496Y211900D01*
X281496Y237300D02*
X294704Y237300D01*
X294704Y262700D02*
X281496Y262700D01*
X281496Y288100D02*
X294704Y288100D01*
X294704Y313500D02*
X281496Y313500D01*
X281496Y338900D02*
X294704Y338900D01*
X294704Y364300D02*
X281496Y364300D01*
X281496Y389700D02*
X294704Y389700D01*
X294704Y415100D02*
X281496Y415100D01*
D15*
X406400Y76200D03*
X408940Y101600D03*
X469900Y368300D03*
X469900Y342900D03*
X469900Y317500D03*
X469900Y292100D03*
X469900Y266700D03*
X469900Y242570D03*
X469900Y217170D03*
X469900Y191770D03*
X469900Y166370D03*
X469900Y140970D03*
X25400Y237490D03*
X25400Y212090D03*
X25400Y186690D03*
X25400Y161290D03*
X25400Y135890D03*
X25400Y368300D03*
X25400Y342900D03*
X25400Y317500D03*
X25400Y292100D03*
X25400Y266700D03*
X101600Y165100D03*
X50800Y127000D03*
X25400Y88900D03*
X242570Y24130D03*
X217170Y24130D03*
D16*
X151140Y29610D03*
X151140Y54610D03*
X151140Y79610D03*
X184140Y79610D03*
X184140Y54610D03*
X184140Y29610D03*
D15*
X120650Y21590D03*
X120650Y46990D03*
X120650Y72390D03*
X120650Y97790D03*
X406210Y21590D03*
X380810Y21590D03*
X355410Y21590D03*
X330010Y21590D03*
X304610Y21590D03*
X279210Y21590D03*
X199200Y480060D03*
X224600Y480060D03*
X250000Y480060D03*
X275400Y480060D03*
X300800Y480060D03*
X436880Y26670D03*
X436880Y52070D03*
X436880Y77470D03*
X436880Y102870D03*
X429260Y469900D03*
X480060Y469900D03*
X25400Y468630D03*
X76200Y468630D03*
D17*
X50800Y203200D03*
X76200Y127000D03*
X139700Y114300D03*
X440055Y356235D03*
X50800Y406400D03*
X241300Y127000D03*
X241300Y165100D03*
X342900Y139700D03*
X342900Y76200D03*
X317500Y165100D03*
X317500Y101600D03*
X266700Y177800D03*
X293370Y57150D03*
X264160Y132080D03*
X320040Y57150D03*
X88900Y266700D03*
X203200Y50800D03*
X431800Y165100D03*
M02*
